<svg id="Layer_1" data-name="Layer 1" xmlns="http://www.w3.org/2000/svg" viewBox="0 0 423.97 414.15"><defs><style>.cls-1{fill:#0b0b0b;}.cls-1,.cls-2{fill-rule:evenodd;}.cls-2{fill:#b5b5b5;}</style></defs><path class="cls-1" d="M206.35,457.09a6.32,6.32,0,0,1-1-3.65,49.77,49.77,0,0,0-10.7-29.67q-9.3-12-18.52-24c-5.17-6.71-8.31-14.19-11.41-21.83-5-12.44-9.71-25.14-17.05-36.41-7.74-11.9-14.49-24.34-21.81-36.46-11-18.14-18.38-37.72-24.48-57.92-5.06-16.73-10.11-33.47-15.64-50C77.84,173.41,65.68,152,50.88,132c-4.56-6.16-9.15-12.28-14.7-17.71a4.87,4.87,0,0,1,3,.21,98.59,98.59,0,0,1,34.55,19.75,188.3,188.3,0,0,1,31.66,36c5.39,8,9.38,16.73,13.06,25.6,6,14.51,12.85,28.7,18,43.55,3.35,9.67,5.85,19.64,8.65,29.5,4.14,14.58,9.89,28.56,15.68,42.53,4.63,11.18,8.58,22.62,13.07,33.86,4.21,10.55,4.72,21.7,5.83,32.77a80.31,80.31,0,0,0,8.68,29.55,41.43,41.43,0,0,0,7.83,10.59c0-2.39.07-4.33,0-6.27-.64-14.17-2.5-28.21-4.51-42.24a225.49,225.49,0,0,1-2.27-36c.06-3.54.05-7.08-.16-10.63a4.52,4.52,0,0,0-2.44-3.89,14.84,14.84,0,0,0-7.29-2.41c-3.62-.08-6.35-1.81-8.82-4.07a34.94,34.94,0,0,1-8.92-13.31,11.82,11.82,0,0,1-.42-7,39.37,39.37,0,0,0,.55-13.64c-.16-1.37.19-1.58,1.38-1.16s2.19.69,3.64,1.14a89.36,89.36,0,0,1-4-15,6.65,6.65,0,0,0-3.56-5.19c-12-7.6-16.28-20.7-11.58-34.84.74-2.23,1.44-4.22-.39-6.33-1.06-1.22-.75-2.94-.65-4.49A48.85,48.85,0,0,1,149.89,198a2.89,2.89,0,0,0-.71-3.5,67,67,0,0,1-10.09-13.68,30.24,30.24,0,0,1-3.52-14.7,2.37,2.37,0,0,0-1.72-2.59c-8-3.39-14.09-9.05-18.83-16.23a17.15,17.15,0,0,1-2.58-9c-.09-2.28.73-2.67,2.79-2.53,8.63.57,15.4,4.63,21.08,10.86a47.74,47.74,0,0,1,4.59,6c.82-.95.18-2.07,1.11-3.06,9.46,8.42,16.63,18,16.89,31.47,1.27-.57,1.57-1.85,2.89-2.29.17,3.26,2.06,5.53,4.15,7.74a12.1,12.1,0,0,1,2.63,5.06c3.23,11.14,1,21.32-5.65,30.62a2.27,2.27,0,0,0-.14,3.07c2.45,3.8,4.5,7.8,5.1,12.38.21,1.63.91,1.12,1.66.39,1-1,1.65-1.11,2.21.53s2.07,3,3.4,4.31c6.37,6.15,10.61,13.41,11.52,22.34a30.09,30.09,0,0,1-3,17.42,6.57,6.57,0,0,1-1.56,2.38c-2.7,1.86-1.89,3.81-.68,6.15,2.45,4.71,4.62,9.57,7,14.34.33.68.47,1.54,1.42,2,.41-4.92.76-9.74,1.23-14.54,1.52-15.24,4.72-30.16,8.43-45a5.06,5.06,0,0,0-.26-3.41c-2-4.82-4.43-9.5-6.07-14.48a2.84,2.84,0,0,0-2.15-2c-5.61-1.71-9-5.12-9.44-11.36-.42-5.51-1.52-11-.57-16.51A32.26,32.26,0,0,1,185.47,189c.85-1.4,1.5-1.18,2.55-.29,2.61,2.21,2.63,2.17,3.8-1,1.94-5.13,4.13-10.13,7.8-14.3.93-1.07.74-1.83,0-2.86-3.7-4.89-7.16-9.94-9.22-15.79-3.37-9.58-1.93-18.27,4.65-26.1,1.13-1.34,2-1.76,3.62-.68,3.13,2.06,3.21,1.95,4.75-1.43,1-2.28,2-4.62,3.13-6.84a3.33,3.33,0,0,0-.3-3.9,26.22,26.22,0,0,0-2.57-3.32,5.93,5.93,0,0,1-1.73-6.17c1.18-5.27,2.42-10.49,4.92-15.33A14.94,14.94,0,0,1,217.06,83c2.46-.57,3.56-2.42,4.69-4.44,1,.71.6,2.13,1.57,2.83,1.74-2.55,3.4-5.13,5.21-7.6a50.7,50.7,0,0,1,7.32-8A20.44,20.44,0,0,1,247.6,60.6c3.16-.32,6.28-.83,8.92-2.79.18.32.33.45.31.55-2.49,11.18-6.46,21.51-16.46,28.32a39.58,39.58,0,0,1-11.81,5.42c-1.18.33-1.9.76-2.14,2.09a13.43,13.43,0,0,1-4.9,8.25c2,.27,3.29-.73,4.88-.88.18,1.47-1,2.83-.34,4.26a40.52,40.52,0,0,1,1.67,3.84c1.18,3.65.43,7.18-1,10.56a54.61,54.61,0,0,1-9.83,14.9,15.18,15.18,0,0,1-9.75,5.36,36.2,36.2,0,0,1,1.94,15.09c-.32,3.16-1.08,6.11-3.78,8.18-1.11.85-.79,1.81-.14,2.71s1.51,1.74,2.78.93q2.24-1.42,4.4-3c.81-.57,1.43-1,1.52.51a19.4,19.4,0,0,0,2,7,8.08,8.08,0,0,1,.39,3.71c-.19,11.36-4.82,20.06-15.26,25.21a2.37,2.37,0,0,0-1.51,2.37,24.76,24.76,0,0,0,1.1,8.72c1.81,5.57,1.22,10.65-3.4,14.76a1.59,1.59,0,0,0-.55,1.75,71.84,71.84,0,0,0,2.72,9.34c.31.77.6,1.86,1.71,1.76.88-.07.88-1.06,1.16-1.71,6.86-16,13.7-32,21.49-47.59a52.74,52.74,0,0,1,3.44-5.13c2.12-3.26,2-5.55-.63-8.39-10.81-11.54-7.58-27.79,1.73-37.11a9.15,9.15,0,0,0,2.15-3.33c2.64,3.1,3.16,3.14,5-.49,2.71-5.44,6.73-9.84,10.72-14.28a5.84,5.84,0,0,1,3.77-2.12c1-.11,2-.17,2.31-1.33a2.67,2.67,0,0,0-1.09-3.14c-2-1.14-2.05-2.79-1.83-4.73a54,54,0,0,1,4.57-16.8,25.07,25.07,0,0,1,13.83-12.73c2.45-1,3.46-2.77,2.45-5-2.08-4.71-.7-8.78,2-12.66A44.37,44.37,0,0,1,284,51.79c5.2-3.55,10.53-6.85,16.78-8.26.36-.08.73-.16.84-.6h3.54c-5,15.45-12.62,28.45-29.65,33.16-2.86.79-3.92,3.43-2.8,6.2a18.88,18.88,0,0,1,1.13,10.42c-1.36,8.21-5.9,14.49-12,19.85-.79.69-2.44,1.15-2.08,2.23.3.93,1.95.56,3,.72.11,0,.19.16.3.26-.18.57-.75.68-1.16.94-2.25,1.37-3.5,2.93-2.81,6a13.28,13.28,0,0,1-2.47,10.91c-3.7,5.15-7.37,10.33-10.66,15.76a10.05,10.05,0,0,1-6.91,5.12c-1.62.27-2,.87-1.91,2.43.23,4.72-.83,9.09-4,12.77a30.56,30.56,0,0,1-4.15,3.64c-.69.56-1.15,1.19-.69,2.09.58,1.15,1.32,2.21,2.71,2.37,1,.12,1.36-.68,1.75-1.42,4.43-8.55,10.15-16.21,15.75-24,9.1-12.68,19.28-24.23,31.47-34,.89-.72.78-1.39.57-2.32-.9-3.89-1-7.9.46-11.57,3.81-9.22,9.92-16.84,17.39-23.38a6.55,6.55,0,0,1,3.42-1.48c3.16-.46,3.74-1.43,2.54-4.54a8.27,8.27,0,0,1,.05-6.24,20.86,20.86,0,0,1,3-5.16c4.49-5.89,10.18-10.44,16.28-14.52,2.07-1.38,4.06-2.86,6.78-2.88a5.36,5.36,0,0,0,3.62-1.5c1.2-1.17,1.46-.2,1.74.63a14.5,14.5,0,0,1,.49,5.25c0,.7-.51,1.6.17,2s1.2-.36,1.77-.65a72.48,72.48,0,0,1,25-7.15,9.54,9.54,0,0,1,4.36.56c2,.73,4,1.85,6,2.12s1.72,1.09,1.31,2.4c-1.4,4.45-4.8,7-8.71,8.91a79.33,79.33,0,0,1-18.55,6.48c-5.33,1.14-10.69,1.49-16-.1-1.39-.41-2-.06-2.89,1-4.67,5.88-9.8,11.25-17.09,13.93-.88.33-1.13.66-.77,1.59,1.59,4.16.41,8-1.6,11.64-2.3,4.19-5.56,7.61-8.82,11-.54.56-1.36,1.16-.87,2.08s1.51.84,2.37.63a11,11,0,0,0,2.28-.84c3-1.46,5.73-3.33,8.56-5.07,2-1.27,3.53-2.73,3.83-5.27a9.57,9.57,0,0,1,1.74-3.8c4.34-6.85,10.59-11.64,17.4-15.74,5.4-3.25,11.17-5,17.53-3.06a1.88,1.88,0,0,0,2-.65,20.43,20.43,0,0,1,6.5-3.72,44.21,44.21,0,0,1,23.5-2.25c.79.14,1.66.5,1.7-.89.11-3.87,2.52-6.1,5.82-7.3,9.29-3.35,18.77-4.49,28.46-1.84a19.32,19.32,0,0,1,6.32,3.11c1.71,1.24,1.63,2.31.14,3.66a15.94,15.94,0,0,1-5,3.22,74,74,0,0,1-29.28,4.69c-.59,0-1.21-.26-1.59.37s.05,1.34.58,1.69C399,77.88,405,83.53,414,81.62a17.21,17.21,0,0,1,4.19-.21c17.32.57,31,7.22,38.83,23.66l-6.42.53a4,4,0,0,0,.17.57c.26.26.55.49.8.76,4.5,4.82,7.65,10.27,8.1,17,.06.89-.35,1.92.48,2.69v3.54c-8.41-1.41-16.34-4-22.74-10-4.09-3.78-5.43-8.69-4.74-14.13.23-1.84-.24-2.69-2.15-3.26A37.08,37.08,0,0,1,414.89,94a8.43,8.43,0,0,1-2.14-2.51c-1.58-3.94-5-5.4-8.49-7-4.39-2.09-8.74-4.32-12.39-7.63a1.18,1.18,0,0,0-1.71-.14c-9.7,6.23-20.28,7.66-31.44,5.54-2.48-.47-4.1-.2-5.66,2.22-6.44,10-16.26,14.39-27.72,15.64-3.54.38-7,.75-10,3-.62.47-1.41.74-1.81,1.67,2.1,0,4,0,6,0,10.84-.06,21.53.88,31.82,4.6a2.85,2.85,0,0,0,1.71.22c11.15-2.72,20.63.93,29.28,7.7,1.62,1.27,3.22,2.59,4.74,4a3.37,3.37,0,0,0,3.79.75c5.46-1.84,11-2.4,16.44,0A54.22,54.22,0,0,1,419,129.51c5.66,4.49,8.67,10.47,10.14,17.41.37,1.74.16,2.32-1.89,2.39-9.47.29-17-4.16-24.25-9.44a51.69,51.69,0,0,1-9.18-8.92c-.43-.52-.74-1.5-1.68-1.14-.77.3-.83,1.15-.92,1.89-.38,3-.38,3-3.34,2.9-8.06-.39-15.36-3.35-22.57-6.65-5.66-2.59-10.45-6-13.29-11.79-.76-1.55-2.28-2.28-3.76-3a61.2,61.2,0,0,0-31.35-4.95c-19.54,1.87-35.41,10.88-48.46,25.28a152,152,0,0,0-10,11.85c-.64.86-1.2,1.77-2,3,4.33-.91,8.13-1.71,11.94-2.49,1.06-.22,1.32-1.07,1.63-1.91a81.15,81.15,0,0,1,4.66-10.75c3.39-6.19,8.4-10.17,15.51-11.25a28.23,28.23,0,0,0,7.21-1.92c.42.4.27.88.35,1.3.51,2.94,1.13,3.35,3.89,2.34a67.11,67.11,0,0,1,20.82-3.78c6.87-.24,12.8,2.38,18.6,5.59,1.2.66.4,1.17,0,1.69a19,19,0,0,1-13.44,7.72c-6.24.63-12.45,1.54-18.75,1.44-3.78-.06-7.33-.77-10.44-3-.53-.39-1.05-1-1.59,0a31.11,31.11,0,0,1-11.8,12,4.44,4.44,0,0,0,3.66,1.22c1.28,0,1.46.47,1.13,1.62-1.22,4.29-4.12,7.08-7.95,9-5,2.54-10.4,3.7-15.91,4.46a33.57,33.57,0,0,1-16-1.24c-1-.34-1.45,0-2,.76-15.94,23.26-30.28,47.37-39.61,74.15a170.15,170.15,0,0,0-7.65,32,15.93,15.93,0,0,0-.05,5.51c.29,1.36.9,2.52,2.56,2.6s2.3-1.11,2.57-2.48c.74-3.85.47-7.81,1.35-11.64,1.68-7.33,4.37-14.11,10.57-18.9a1.66,1.66,0,0,0,.57-2.23,26.56,26.56,0,0,1,13.89-32.55,4.53,4.53,0,0,0,2.4-2.48c1.89,2,2.11,2,3-.52.95-2.73,1.73-5.39.46-8.36-.78-1.8.19-3.78.82-5.59,3.17-9.09,8.39-16.36,17.83-19.84a19.28,19.28,0,0,0,2.69-1.57A17.59,17.59,0,0,0,260,174c.33,1,.83,2.05,2,2.17a2.38,2.38,0,0,0,2.54-1.79c1.39-5.87,6.27-7.68,11-9.49a71.21,71.21,0,0,1,17-4c4.1-.49,8,.85,11.95,1.86,1,.26.68.89.33,1.52-2.79,5.05-6.52,9.1-12,11.22-1.65.64-3.36,1.17-5,1.93a31.85,31.85,0,0,1-21,2.22c-2-.42-3-.08-3.8,2a25.94,25.94,0,0,1-7.08,10.3c.46.63,1,.46,1.47.41,1-.12,1.34.17,1.14,1.21-1.5,7.9-4,15.28-10.41,20.72a24.62,24.62,0,0,1-6.41,3.9,4,4,0,0,0-2.37,2.64A55.71,55.71,0,0,1,232,235.51a23.05,23.05,0,0,1-4.27,4.16c-.36.29-1.1.46-.85,1.11s.91.54,1.35.36c2.36-1,2.16.4,1.92,2-.41,2.7-.75,5.41-1.16,8.11-1.1,7.15-4.71,13-9.71,18a15,15,0,0,1-7,4.07,5.82,5.82,0,0,0-3.75,2.78c-1.37,2.21-3.38,3.92-6,4.09-2.43.17-2.54,1.59-2.74,3.34-1.39,12-2.22,23.95-2.82,36-.42,8.35-.63,16.67.91,24.93a6.55,6.55,0,0,0,1.62,3.57c.8.8,1.7,1.27,2.74.45s1.71-2,.84-3.07c-2.46-3-1.54-6.16-.5-9.24,2.08-6.12,5.4-11.62,9-17,1-1.52,1.53-2.54,0-4.26-2.23-2.48-2.83-5.8-2.92-9.1a42.68,42.68,0,0,1,4.4-19.91,5.31,5.31,0,0,1,1.54-2.12c5.22-3.84,5.22-3.85,7.93-9.91,1.23.57,1.18,2.17,2.52,2.95,2.48-12.15,4.45-24.58,17.9-30.38-.41-.26-.27-.21-.2-.12.61.86.63,2.56,1.88,2.4,1-.12.88-1.71,1.14-2.66,2.05-7.54,5.74-14,11.84-19,.76-.62,1.06-1.06.11-1.85-3.61-3-4-6.87-2.75-11.07,1.76-6,5.42-10.93,9.45-15.58,1.64-1.9,3.42-3.67,5.11-5.52a8.13,8.13,0,0,1,3.83-2.1c1.89-.59,3.94-.83,5.54-2.11,1.17-.93,1.45-.27,1.77.71a18.56,18.56,0,0,1-2.17,16.32c-2.11,3.32-4.89,6.08-7.5,9-1.18,1.31-2.29,2.7-3.36,4.11-.51.68-1.35,1.56-.72,2.36s1.78.17,2.65-.14a22.78,22.78,0,0,0,5.22-3c-.13,8.17-1.42,15.77-5.33,22.73-4.1,7.28-10,12.31-18.39,14-1.64.33-1.94,1.42-2.09,2.9-.7,6.78-1.9,13.48-5,19.62-2.15,4.25-5.31,7.47-10.55,7.61-1.41,0-1.11,1.1-1.17,1.93a45.12,45.12,0,0,1-5,18.21,15.93,15.93,0,0,1-5.31,5.75c2.6.56,4.67.55,6.8-1.26a32.43,32.43,0,0,1-.55,7.83c-1.2,8.07-3.69,15.64-8.84,22.14a17.35,17.35,0,0,1-8,6.1,11.81,11.81,0,0,0-5.43,3.66,6.53,6.53,0,0,1-4.59,2.8c-1.53.1-1.39,1.22-1.32,2.28q.93,14.59,2.23,29.14a194.57,194.57,0,0,0,4.36,27.29c.38,1.61.43,4,2.3,4.15s1.95-2.27,2.55-3.65c3.26-7.46,4.26-15.48,5.4-23.43A179.85,179.85,0,0,1,229,343.38c3.49-8.29,6.55-16.76,9.87-25.12a160.9,160.9,0,0,1,17.52-32.19c7.8-11.28,14.45-23.41,24.12-33.29,9-9.17,17-19.33,27.09-27.34C324.51,212,342.4,200,363,192.78c15.47-5.41,31.24-7.51,47.45-3.74a55.75,55.75,0,0,1,18.46,7.79c.76.5,1.45,1.1,2.7,2.06-2.95-.17-5.2-.37-7.45-.42-32.59-.67-61.27,9.45-86.08,30.77-16.9,14.52-29.6,32.15-40,51.63-5.59,10.42-9.83,21.46-15.24,31.94-12.72,24.63-27,48.33-44.2,70.1-6.19,7.81-12.69,15.36-17.63,24.08-3.76,6.63-7.28,13.36-9,20.85-1.48,6.41,0,12.28,3.49,17.73a12.66,12.66,0,0,0,3.09,2.8c3.08,2.44,2.77,4.76-.74,6.6-1.83,1-3.91,1.17-5.73,2.12ZM364.91,195.31a12.47,12.47,0,0,0-1.93.4,167.16,167.16,0,0,0-65.69,44.15c-15.49,17-28,36.14-39.64,55.86-7.45,12.6-13.33,26-19.4,39.27a288.42,288.42,0,0,0-15.9,42.21c-.14.53-.69,1.09-.11,1.74a3.48,3.48,0,0,0,.4-.56c5.87-13.22,12.35-26.15,19-39,17.17-33.38,36.95-65,62.07-93.11,13.68-15.33,28.17-29.59,45.18-41.19,5.18-3.53,10.66-6.55,16-9.78.1-.06.39.13.27-.21Zm-205.61,143c-.25-.42-.52-.84-.74-1.28-5.77-11.23-11.58-22.43-17.27-33.69-2.95-5.85-6.45-11.47-8.49-17.75-9.42-29-19.3-57.82-32.24-85.47a196.13,196.13,0,0,0-21.64-36,7.36,7.36,0,0,0-2.64-2.62,5.76,5.76,0,0,0,.8,2.91c4.55,9.86,8.31,20,12.3,30.12,9.72,24.57,19,49.27,26.61,74.61,3.68,12.3,8.22,24.35,14.67,35.53,5.31,9.2,10.56,18.42,17.27,26.76,6.08,7.56,10.27,16.35,14.63,25,3.12,6.18,6.25,12.38,7.75,19.24a5.28,5.28,0,0,0,2,3.09c1.67,1.26,2.91.89,3.49-1.1a12.55,12.55,0,0,0,.06-5.49c-1.51-10-4.43-19.69-7.52-29.33-3.63-11.34-7.52-22.54-13-33.13a111.48,111.48,0,0,1-8.09-19.36c-8.57-28.57-18.22-56.76-30.39-84-8.56-19.18-18.67-37.36-32.77-53.09-6.82-7.6-14-14.76-22.75-20.23-.62-.39-1.18-1.06-2.22-.73l1,1.07c18,18.94,32.65,40.15,42.46,64.5,7,17.24,14.84,34.11,21.3,51.55,8.88,24,17.07,48.28,29.22,71A63.15,63.15,0,0,1,159.3,338.28Zm67,48.87c3.46-.64,5.19-3.09,7-5.37A143.17,143.17,0,0,0,242,368.49c11.8-18.91,23.14-38.08,33-58.07C283.19,294,291.89,278,302.61,263c16.29-22.63,36.17-41.06,61.11-54,13.35-6.9,27.06-12.07,42.14-13.12l6.91-.47a29.52,29.52,0,0,0-12-3.71c-14.45-1.66-27.66,1.93-39.86,9.62a261.71,261.71,0,0,0-68.77,63.46c-19,24.91-34.08,52.24-48,80.2C237.8,357.67,233,371,227.56,384,227.12,385,226.7,386.08,226.26,387.15Zm217.9-284.23a18.35,18.35,0,0,0,4.19-.36c1.66-.37,2.26-1.08,1.28-2.77a26.44,26.44,0,0,0-6.25-7.66C436,86.2,427.33,84.35,418.16,84c-1.24-.05-1.48.67-1.59,1.63-.48,4.26,1.7,7.23,4.88,9.55C428.2,100.14,435.91,102.36,444.16,102.92Zm-96-28.06a11,11,0,0,0-1.4.13,24.7,24.7,0,0,0-2.57.63c-8.49,2.62-14.74,8.39-20.62,14.67a4.08,4.08,0,0,0-.74,1.34c-1.29,3.3.51,5.82,4,5.66a12,12,0,0,0,4.29-.94,81.42,81.42,0,0,0,16-8.94,13.39,13.39,0,0,0,5.4-7C353.66,76.61,352.48,74.89,348.18,74.86Zm-41.78-3c-.06,4.1,2.15,5.84,6.07,4.82a7.89,7.89,0,0,0,3-1.34c5.68-4.51,11.07-9.31,15.42-15.17a12.84,12.84,0,0,0,2.05-4.85,3.27,3.27,0,0,0-1.44-3.65c-2.7-2-5.48-1.4-7.87.22-6.58,4.47-12.48,9.67-16.37,16.81A6.54,6.54,0,0,0,306.4,71.86Zm114.2,74.53c3.65.16,5.42-2.25,4.07-4.9A33.51,33.51,0,0,0,403,123.65a9.23,9.23,0,0,0-4.81-.26c-2.75.7-3.62,2.4-2.37,4.93a20.59,20.59,0,0,0,2.14,3.34c5.08,6.69,12.11,10.66,19.62,13.92A17.64,17.64,0,0,0,420.6,146.39ZM150.48,232a44.85,44.85,0,0,0,.68,7.93,36.53,36.53,0,0,0,1.34,5.36,15.26,15.26,0,0,0,8.17,9.42c3,1.37,5-.07,4.75-3.25a12,12,0,0,1,0-2,39.24,39.24,0,0,0-2.92-18.61c-1.24-3.12-3.11-5.89-6.29-7.43-2.62-1.27-4.45-.39-5.19,2.41A23.59,23.59,0,0,0,150.48,232Zm78.39,46.73a2.59,2.59,0,0,0,1.81,3.14c2.51.82,4.79.77,7-1.1a18.62,18.62,0,0,0,5.74-9A112.45,112.45,0,0,0,246.5,258a4.63,4.63,0,0,0-2.72-5.28c-2.34-1.2-3.95-1-5.81.8a26.32,26.32,0,0,0-2.8,3.41C230.72,263.27,229.52,270.58,228.87,278.73ZM185.1,307.4a8.51,8.51,0,0,0-1.26-5.31c-2.41-3.8-4.33-7.88-6.54-11.79a19.4,19.4,0,0,0-3.74-4.63,9.44,9.44,0,0,0-5.52-2.58,2.42,2.42,0,0,0-2.95,2,17.23,17.23,0,0,0-.12,7.46c1.47,8.38,7.84,13.43,13.1,19.23a2.23,2.23,0,0,0,.77.43c4.11,1.94,6,.83,6.26-3.7C185.12,308.14,185.1,307.76,185.1,307.4Zm27.49-5.65c.12,2.05.31,4.11.33,6.17,0,1.63.86,2.19,2.32,2.31,4.19.34,7-1.59,9-5.17a37.85,37.85,0,0,0,4.33-17.65c.09-4.8-3-6.81-7.4-4.69a13.07,13.07,0,0,0-7.19,8.51A48.36,48.36,0,0,0,212.59,301.75ZM359.79,111a13.73,13.73,0,0,0-2,.22c-3.36.72-4.3,3.12-2.25,5.87a16.28,16.28,0,0,0,2.46,2.52,57.38,57.38,0,0,0,24.55,12.06c2.47.59,3.76-.36,4.13-2.87.27-1.83-.65-3.1-1.93-4.2A82.43,82.43,0,0,0,365.34,112,12.58,12.58,0,0,0,359.79,111Zm.6-62.43a30.77,30.77,0,0,0-6.35.9,87.12,87.12,0,0,0-16.93,5.69c-3.3,1.47-4.2,4.08-2.48,6.77,1.22,1.88,3.2,2,5.13,1.91,5.51-.17,10.69-2,15.91-3.49a64.28,64.28,0,0,0,9.14-3.3c2.15-1,3.52-3.05,3.15-4.84-.44-2.16-2.22-2.8-4.07-3.2C362.75,48.81,361.56,48.75,360.39,48.61Zm-110,19c.28-1.64-.57-2.3-2-2.53A12.73,12.73,0,0,0,239.87,67c-6.56,3.73-10.61,9.7-14.19,16a4.16,4.16,0,0,0,1,5.43,4.26,4.26,0,0,0,5.32.34,72.43,72.43,0,0,0,13.28-10.62C248.28,75.29,249.71,71.6,250.38,67.59ZM182.21,273.1c-.44-5.85-.92-11.29-3.07-16.4a9.71,9.71,0,0,0-3.7-4.83c-2.23-1.37-3.61-1-4.81,1.38a16.24,16.24,0,0,0-1.51,4.38c-1.62,8.16.62,15.64,4.22,22.81,1.45,2.91,5.18,2.94,7.13.26A10.16,10.16,0,0,0,182.21,273.1Zm14.57-57c-.19-2.5-.48-5-.55-7.5a19.93,19.93,0,0,0-4.65-12.17c-2.13-2.66-4.93-2.59-6.93.2a6.8,6.8,0,0,0-1.29,3,32.55,32.55,0,0,0,4,20.88,6.38,6.38,0,0,0,6.3,3.34,2.74,2.74,0,0,0,2.88-2.48A34.79,34.79,0,0,0,196.78,216.06Zm-3.66-69.25c0,4.91,1,9.53,3.92,13.59,1.42,2,3.23,3.27,5.8,2.78s3.24-2.57,3.53-4.77c1-7.37-.74-14.32-3.49-21.08a6.5,6.5,0,0,0-3-2.86c-2.63-1.61-4.28-1-5.18,1.91A38.5,38.5,0,0,0,193.12,146.81ZM270.61,228c-.08-.48-.21-1.35-.42-2.2-.12-.51-.41-1.07-1.07-.68-2.13,1.23-4.72,1.14-6.82,2.5-7.13,4.6-12.16,10.61-13.32,19.34-.46,3.49.73,4.83,4.24,4.58a4.68,4.68,0,0,0,2.77-1.22,55.44,55.44,0,0,0,12.9-15.57A14.23,14.23,0,0,0,270.61,228ZM166.07,203.76c-.09-4.08-.76-7.91-3.24-11.16-2.16-2.83-5.14-2.4-6.45.83-.28.68-.6,1.35-.84,2-2.13,6.23-3.88,12.54-3.64,19.22.08,2.19.75,4.07,3.14,4.81,2.6.8,4.63.32,6.17-2.08C163.89,213.25,166.06,208.82,166.07,203.76Zm43.29,58.71c-.11,2-.51,4.29,1.68,5.53s4.27.26,6.19-1a4.11,4.11,0,0,0,.54-.39,27.91,27.91,0,0,0,9-19.57c.15-2.38-1.46-3.8-3.85-4a7.22,7.22,0,0,0-6.15,2.4C212.24,250.24,209.26,255.68,209.36,262.47ZM279,196.42c.09-3.46-1-4.41-4.4-3.86a6.14,6.14,0,0,0-3.3,1.67,94.74,94.74,0,0,0-12,14.48,15,15,0,0,0-2.45,7c-.22,2.17.73,3.16,2.91,3.2a8.18,8.18,0,0,0,5.41-2.24,61.36,61.36,0,0,0,10.61-11.23A16,16,0,0,0,279,196.42Zm-66.44-20c.13-3.84-.87-4.82-3.94-5-3.61-.16-5.72,1.94-7.39,4.71-2.85,4.72-4.27,10-5.58,15.28-.49,2-.48,3.68,1.35,4.9a5.27,5.27,0,0,0,5.83.4,13.69,13.69,0,0,0,5.12-5.37A37.75,37.75,0,0,0,212.55,176.46Zm93.51-86.68c0-5.51-2.17-7-6.09-5.29a11.08,11.08,0,0,0-3.26,2.24,47.23,47.23,0,0,0-10.77,17c-.88,2.26-.46,4.76,1.13,5.83,2,1.32,3.63.15,5.27-.85a4.06,4.06,0,0,0,.51-.42A55.9,55.9,0,0,0,303.6,95.81C305,93.6,306,91.26,306.06,89.78Zm-31,88.37c8.3-.09,15-4.18,21.64-8.57,1.29-.86,1.09-2.19.79-3.41a3.4,3.4,0,0,0-2.54-2.78,9.75,9.75,0,0,0-5,0c-5.17,1.47-10.36,2.89-15.48,4.53a12,12,0,0,0-6.32,4.26c-1.73,2.38-1.21,4.09,1.5,5.19A14.94,14.94,0,0,0,275.05,178.15Zm89.39-97.91A53,53,0,0,0,385,76.53c2.14-.88,3-2.4,2.2-4.08a4.65,4.65,0,0,0-2.84-2.29,29.83,29.83,0,0,0-13.28-1.51c-5.15.38-10.05,1.6-14,5.21-2.59,2.36-2,4.83,1.29,6C360.54,80.55,362.77,80.13,364.44,80.24Zm35.85-10.8a56.5,56.5,0,0,0,9.45-1c3.23-.65,6.58-1,9.4-3,1.45-1,2.64-2.38,2.33-4.22s-2.12-2.09-3.61-2.42c-4.58-1-9.24-.81-13.86-.48a30.52,30.52,0,0,0-11.52,2.84,4.22,4.22,0,0,0-2.66,4.43c.24,2.13,1.85,2.86,3.66,3.29A27.78,27.78,0,0,0,400.29,69.44ZM296,54c0-2.8-.91-3.66-3.74-3.65A10,10,0,0,0,286,52.91a59.16,59.16,0,0,0-11.9,12.37,9.59,9.59,0,0,0-1.84,4.45c-.35,3.28,1.33,4.74,4.51,3.9a14.18,14.18,0,0,0,4.36-2.1,66.8,66.8,0,0,0,12.61-11.67A8.68,8.68,0,0,0,296,54Zm-41.44,54.85c-.23,1.92.84,2.77,2.46,3.15a5,5,0,0,0,4.34-1.13,18.67,18.67,0,0,0,4.19-4.8A83.83,83.83,0,0,0,272,93a6.55,6.55,0,0,0,.48-3.47c-.34-2.58-2.32-3.56-4.4-4.47-1.9-.84-2.87.5-3.91,1.62C258.38,93,256.11,100.78,254.52,108.85ZM219.4,229c-.12,4.77,1.22,7.44,3.4,8.17s4.63-.63,6.63-3.43c.12-.18.25-.36.37-.55a41.15,41.15,0,0,0,5.35-13,9.39,9.39,0,0,0-.1-5.67c-1.08-2.78-4.41-4-6.44-2C223.54,217.36,220.17,223.21,219.4,229Zm-64.35-46.7c.21-7.12-3-13-6.81-18.57-2-2.95-3.85-3.72-6-2.83s-2.59,2.39-2.12,6.1A46.94,46.94,0,0,0,147,185.75a6.06,6.06,0,0,0,3.27,2.83c2.62.88,3.91.18,4.43-2.54C154.9,184.82,154.93,183.56,155.05,182.32Zm55.13-47.7c3.18-.21,5.54-2.34,7.08-5.38,2.52-5,4.9-10.05,7.25-15.13,1.24-2.69-.67-5.24-3.65-5a7.16,7.16,0,0,0-5.07,2.39,45.41,45.41,0,0,0-10.1,18.18C205,132.44,206.88,134.67,210.18,134.62Zm13.95,186.59a5.93,5.93,0,0,0-3.93-5.55,4,4,0,0,0-4.75,1.37,21.4,21.4,0,0,0-1.53,1.89c-3.48,4.89-5,10.8-8,15.91a5,5,0,0,0-.42,1.71,4.49,4.49,0,0,0,2,4.39c1.39,1.1,2.81.54,4.13-.24a11.58,11.58,0,0,0,5-5.15,11.13,11.13,0,0,1,1.55-2.41c2.53-3.05,3.69-6.85,5.61-10.23A4.44,4.44,0,0,0,224.13,321.21Zm12-178.08c-.09,3.56,1,4.62,4,4.67a6.14,6.14,0,0,0,4.64-2.21,51.67,51.67,0,0,0,9.79-15.1c1.09-2.45.6-4.44-1-5.58a5.29,5.29,0,0,0-6.34.26,34,34,0,0,0-8.52,10.31A20.23,20.23,0,0,0,236.1,143.13Zm-13-51.38c.1-3.31-.85-5.87-2.34-6.38-2.33-.81-4.09.53-5.8,1.84a9.33,9.33,0,0,0-1.16,1c-4,4.17-6,9.36-7.16,14.89-.44,2-.45,4,1.6,5.29,1.77,1.1,4.11.74,6.06-1.08a34.83,34.83,0,0,0,8.21-12.66A12.5,12.5,0,0,0,223.13,91.75ZM324,124.21c-7.67.23-14,.9-20,3.61-2,.91-2.3,2-.92,3.75a7.07,7.07,0,0,0,5.91,2.51c7.74-.13,15.46-.67,23-2.73,1.37-.37,3.26-.66,3.34-2.4.1-1.9-1.64-2.8-3.16-3.6a6.45,6.45,0,0,0-1.27-.38A26.3,26.3,0,0,0,324,124.21Zm-42.88,20a4.77,4.77,0,0,0,3.74-1,30.66,30.66,0,0,0,10.32-14.07c1-2.71-.64-5-3.54-5.35a8,8,0,0,0-6.08,2.09c-3.85,3.1-6.12,7.34-8.34,11.58C274.36,142.77,273.45,143.34,281.07,144.21Zm171.7-18.29c2.48,0,3.1-.65,2.37-3.08-2.7-9-8.92-14.64-17.32-18.21-1.1-.47-1.87-.23-2.11,1a18.15,18.15,0,0,0-.39,2.16C434.85,115.63,444.68,125.82,452.77,125.92Zm-189.41,34c6.7-.65,12.66-3.88,18.12-8.22,1.19-.95.4-1.92-.26-2.67a6.5,6.5,0,0,0-5.21-2,36.21,36.21,0,0,0-18.83,5.64,7,7,0,0,0-1.35,1.14c-1.86,1.9-1.66,3.18.72,4.48A16.08,16.08,0,0,0,263.36,159.88Zm-127.52-1.09a2.83,2.83,0,0,0,2.86-3.19,7.06,7.06,0,0,0-1.41-3.67,37.58,37.58,0,0,0-13.85-12.37c-2-1-3.26-.57-4.6.95-1.47,1.67-1,3.33-.06,4.89a32.2,32.2,0,0,0,14.06,12.68A7.34,7.34,0,0,0,135.84,158.79Zm99.07-3.52a39.47,39.47,0,0,0-.61-7.4c-.8-3.75-3.62-4.65-6.5-2.12a4.59,4.59,0,0,0-1.23,2.06c-2,5.54-2.08,11.26-1.62,17a3,3,0,0,0,1.39,2.17c3.15,2.37,6.2,1.48,7.49-2.25C234.86,161.79,234.83,158.67,234.91,155.27Zm24.21,24c0-4.07-1.72-5.16-5.81-3.25a26.11,26.11,0,0,0-7.08,5.23c-2.66,2.62-2.66,6.1-3.42,9.37a3.34,3.34,0,0,0,.92,3.62c1.2,1,2.5.64,3.71-.05a32.56,32.56,0,0,0,8-6.2A12.11,12.11,0,0,0,259.12,179.25Zm-21.05,32.51c.18,1.07-.23,3,1.19,3.69,1.64.85,3.46.14,5-.78a3.85,3.85,0,0,0,.87-.68c4.38-4.73,7.74-10,9.24-16.4a1.5,1.5,0,0,0-1.1-2,6.4,6.4,0,0,0-7.12,1.54,60.32,60.32,0,0,0-6.4,8.19A11.61,11.61,0,0,0,238.07,211.76Z" transform="translate(-36.18 -42.93)"/><path class="cls-2" d="M159.3,338.28a63.15,63.15,0,0,0-6.16-18c-12.15-22.67-20.34-46.94-29.22-71-6.46-17.44-14.34-34.31-21.3-51.55-9.81-24.35-24.41-45.56-42.46-64.5l-1-1.07c1-.33,1.6.34,2.22.73,8.71,5.47,15.93,12.63,22.75,20.23,14.1,15.73,24.21,33.91,32.77,53.09,12.17,27.28,21.82,55.47,30.39,84a111.48,111.48,0,0,0,8.09,19.36c5.48,10.59,9.37,21.79,13,33.13,3.09,9.64,6,19.3,7.52,29.33a12.55,12.55,0,0,1-.06,5.49c-.58,2-1.82,2.36-3.49,1.1a5.28,5.28,0,0,1-2-3.09c-1.5-6.86-4.63-13.06-7.75-19.24-4.36-8.63-8.55-17.42-14.63-25-6.71-8.34-12-17.56-17.27-26.76-6.45-11.18-11-23.23-14.67-35.53-7.57-25.34-16.89-50-26.61-74.61-4-10.08-7.75-20.26-12.3-30.12a5.76,5.76,0,0,1-.8-2.91,7.36,7.36,0,0,1,2.64,2.62,196.13,196.13,0,0,1,21.64,36c12.94,27.65,22.82,56.48,32.24,85.47,2,6.28,5.54,11.9,8.49,17.75,5.69,11.26,11.5,22.46,17.27,33.69C158.78,337.44,159.05,337.86,159.3,338.28Z" transform="translate(-36.18 -42.93)"/><path class="cls-2" d="M226.26,387.15c.44-1.07.86-2.14,1.3-3.2,5.42-13,10.24-26.28,16.53-38.9,13.93-28,29-55.29,48-80.2a261.71,261.71,0,0,1,68.77-63.46c12.2-7.69,25.41-11.28,39.86-9.62a29.52,29.52,0,0,1,12,3.71l-6.91.47c-15.08,1.05-28.79,6.22-42.14,13.12-24.94,12.91-44.82,31.34-61.11,54-10.72,14.91-19.42,31-27.54,47.38-9.9,20-21.24,39.16-33,58.07a143.17,143.17,0,0,1-8.77,13.29C231.45,384.06,229.72,386.51,226.26,387.15Z" transform="translate(-36.18 -42.93)"/><path class="cls-2" d="M364.88,195.27c-5.36,3.24-10.84,6.26-16,9.79-17,11.6-31.5,25.86-45.18,41.19-25.12,28.14-44.9,59.73-62.07,93.11-6.62,12.87-13.1,25.8-19,39a3.48,3.48,0,0,1-.4.56c-.58-.65,0-1.21.11-1.74A288.42,288.42,0,0,1,238.25,335c6.07-13.28,11.95-26.67,19.4-39.27,11.67-19.72,24.15-38.87,39.64-55.86A167.16,167.16,0,0,1,363,195.71a12.47,12.47,0,0,1,1.93-.4Z" transform="translate(-36.18 -42.93)"/><path class="cls-2" d="M444.16,102.92c-8.25-.56-16-2.78-22.71-7.73-3.18-2.32-5.36-5.29-4.88-9.55.11-1,.35-1.68,1.59-1.63,9.17.34,17.85,2.19,25.22,8.12a26.44,26.44,0,0,1,6.25,7.66c1,1.69.38,2.4-1.28,2.77A18.35,18.35,0,0,1,444.16,102.92Z" transform="translate(-36.18 -42.93)"/><path class="cls-2" d="M348.18,74.86c4.3,0,5.48,1.75,4.37,5.52a13.39,13.39,0,0,1-5.4,7,81.42,81.42,0,0,1-16,8.94,12,12,0,0,1-4.29.94c-3.54.16-5.34-2.36-4-5.66a4.08,4.08,0,0,1,.74-1.34c5.88-6.28,12.13-12.05,20.62-14.67a24.7,24.7,0,0,1,2.57-.63A11,11,0,0,1,348.18,74.86Z" transform="translate(-36.18 -42.93)"/><path class="cls-2" d="M306.4,71.86a6.54,6.54,0,0,1,.86-3.16c3.89-7.14,9.79-12.34,16.37-16.81,2.39-1.62,5.17-2.19,7.87-.22a3.27,3.27,0,0,1,1.44,3.65,12.84,12.84,0,0,1-2.05,4.85c-4.35,5.86-9.74,10.66-15.42,15.17a7.89,7.89,0,0,1-3,1.34C308.55,77.7,306.34,76,306.4,71.86Z" transform="translate(-36.18 -42.93)"/><path class="cls-2" d="M420.6,146.39a17.64,17.64,0,0,1-3.06-.81c-7.51-3.26-14.54-7.23-19.62-13.92a20.59,20.59,0,0,1-2.14-3.34c-1.25-2.53-.38-4.23,2.37-4.93a9.23,9.23,0,0,1,4.81.26,33.51,33.51,0,0,1,21.71,17.84C426,144.14,424.25,146.55,420.6,146.39Z" transform="translate(-36.18 -42.93)"/><path class="cls-2" d="M150.48,232a23.59,23.59,0,0,1,.52-6.16c.74-2.8,2.57-3.68,5.19-2.41,3.18,1.54,5.05,4.31,6.29,7.43a39.24,39.24,0,0,1,2.92,18.61,12,12,0,0,0,0,2c.25,3.18-1.79,4.62-4.75,3.25a15.26,15.26,0,0,1-8.17-9.42,36.53,36.53,0,0,1-1.34-5.36A44.85,44.85,0,0,1,150.48,232Z" transform="translate(-36.18 -42.93)"/><path class="cls-2" d="M228.87,278.73c.65-8.15,1.85-15.46,6.3-21.79a26.32,26.32,0,0,1,2.8-3.41c1.86-1.84,3.47-2,5.81-.8A4.63,4.63,0,0,1,246.5,258a112.45,112.45,0,0,1-3.07,13.79,18.62,18.62,0,0,1-5.74,9c-2.22,1.87-4.5,1.92-7,1.1A2.59,2.59,0,0,1,228.87,278.73Z" transform="translate(-36.18 -42.93)"/><path class="cls-2" d="M185.1,307.4c0,.36,0,.74,0,1.1-.26,4.53-2.15,5.64-6.26,3.7a2.23,2.23,0,0,1-.77-.43c-5.26-5.8-11.63-10.85-13.1-19.23a17.23,17.23,0,0,1,.12-7.46,2.42,2.42,0,0,1,2.95-2,9.44,9.44,0,0,1,5.52,2.58,19.4,19.4,0,0,1,3.74,4.63c2.21,3.91,4.13,8,6.54,11.79A8.51,8.51,0,0,1,185.1,307.4Z" transform="translate(-36.18 -42.93)"/><path class="cls-2" d="M212.59,301.75a48.36,48.36,0,0,1,1.35-10.52,13.07,13.07,0,0,1,7.19-8.51c4.37-2.12,7.49-.11,7.4,4.69a37.85,37.85,0,0,1-4.33,17.65c-1.95,3.58-4.77,5.51-9,5.17-1.46-.12-2.3-.68-2.32-2.31C212.9,305.86,212.71,303.8,212.59,301.75Z" transform="translate(-36.18 -42.93)"/><path class="cls-2" d="M359.79,111a12.58,12.58,0,0,1,5.55,1,82.43,82.43,0,0,1,19.38,12.63c1.28,1.1,2.2,2.37,1.93,4.2-.37,2.51-1.66,3.46-4.13,2.87A57.38,57.38,0,0,1,358,119.65a16.28,16.28,0,0,1-2.46-2.52c-2.05-2.75-1.11-5.15,2.25-5.87A13.73,13.73,0,0,1,359.79,111Z" transform="translate(-36.18 -42.93)"/><path class="cls-2" d="M360.39,48.61c1.17.14,2.36.2,3.5.44,1.85.4,3.63,1,4.07,3.2.37,1.79-1,3.84-3.15,4.84a64.28,64.28,0,0,1-9.14,3.3c-5.22,1.5-10.4,3.32-15.91,3.49-1.93.06-3.91,0-5.13-1.91-1.72-2.69-.82-5.3,2.48-6.77A87.12,87.12,0,0,1,354,49.51,30.77,30.77,0,0,1,360.39,48.61Z" transform="translate(-36.18 -42.93)"/><path class="cls-2" d="M250.38,67.59c-.67,4-2.1,7.7-5.1,10.55A72.43,72.43,0,0,1,232,88.76a4.26,4.26,0,0,1-5.32-.34,4.16,4.16,0,0,1-1-5.43c3.58-6.34,7.63-12.31,14.19-16a12.73,12.73,0,0,1,8.47-1.89C249.81,65.29,250.66,66,250.38,67.59Z" transform="translate(-36.18 -42.93)"/><path class="cls-2" d="M182.21,273.1a10.16,10.16,0,0,1-1.74,7.6c-1.95,2.68-5.68,2.65-7.13-.26-3.6-7.17-5.84-14.65-4.22-22.81a16.24,16.24,0,0,1,1.51-4.38c1.2-2.33,2.58-2.75,4.81-1.38a9.71,9.71,0,0,1,3.7,4.83C181.29,261.81,181.77,267.25,182.21,273.1Z" transform="translate(-36.18 -42.93)"/><path class="cls-2" d="M196.78,216.06a34.79,34.79,0,0,1-.26,5.3,2.74,2.74,0,0,1-2.88,2.48,6.38,6.38,0,0,1-6.3-3.34,32.55,32.55,0,0,1-4-20.88,6.8,6.8,0,0,1,1.29-3c2-2.79,4.8-2.86,6.93-.2a19.93,19.93,0,0,1,4.65,12.17C196.3,211.06,196.59,213.56,196.78,216.06Z" transform="translate(-36.18 -42.93)"/><path class="cls-2" d="M193.12,146.81a38.5,38.5,0,0,1,1.6-10.43c.9-2.92,2.55-3.52,5.18-1.91a6.5,6.5,0,0,1,3,2.86c2.75,6.76,4.49,13.71,3.49,21.08-.29,2.2-.94,4.28-3.53,4.77s-4.38-.79-5.8-2.78C194.14,156.34,193.15,151.72,193.12,146.81Z" transform="translate(-36.18 -42.93)"/><path class="cls-2" d="M270.61,228a14.23,14.23,0,0,1-1.72,6.75A55.44,55.44,0,0,1,256,250.27a4.68,4.68,0,0,1-2.77,1.22c-3.51.25-4.7-1.09-4.24-4.58,1.16-8.73,6.19-14.74,13.32-19.34,2.1-1.36,4.69-1.27,6.82-2.5.66-.39.95.17,1.07.68C270.4,226.6,270.53,227.47,270.61,228Z" transform="translate(-36.18 -42.93)"/><path class="cls-2" d="M166.07,203.76c0,5.06-2.18,9.49-4.86,13.67-1.54,2.4-3.57,2.88-6.17,2.08-2.39-.74-3.06-2.62-3.14-4.81-.24-6.68,1.51-13,3.64-19.22.24-.7.56-1.37.84-2,1.31-3.23,4.29-3.66,6.45-.83C165.31,195.85,166,199.68,166.07,203.76Z" transform="translate(-36.18 -42.93)"/><path class="cls-2" d="M209.36,262.47c-.1-6.79,2.88-12.23,7.37-17a7.22,7.22,0,0,1,6.15-2.4c2.39.19,4,1.61,3.85,4a27.91,27.91,0,0,1-9,19.57,4.11,4.11,0,0,1-.54.39c-1.92,1.25-4,2.26-6.19,1S209.25,264.51,209.36,262.47Z" transform="translate(-36.18 -42.93)"/><path class="cls-2" d="M279,196.42a16,16,0,0,1-3.17,9.06,61.36,61.36,0,0,1-10.61,11.23A8.18,8.18,0,0,1,259.8,219c-2.18,0-3.13-1-2.91-3.2a15,15,0,0,1,2.45-7,94.74,94.74,0,0,1,12-14.48,6.14,6.14,0,0,1,3.3-1.67C278,192,279.08,193,279,196.42Z" transform="translate(-36.18 -42.93)"/><path class="cls-2" d="M212.55,176.46a37.75,37.75,0,0,1-4.61,15,13.69,13.69,0,0,1-5.12,5.37,5.27,5.27,0,0,1-5.83-.4c-1.83-1.22-1.84-2.94-1.35-4.9,1.31-5.3,2.73-10.56,5.58-15.28,1.67-2.77,3.78-4.87,7.39-4.71C211.68,171.64,212.68,172.62,212.55,176.46Z" transform="translate(-36.18 -42.93)"/><path class="cls-2" d="M306.06,89.78c0,1.48-1.1,3.82-2.46,6a55.9,55.9,0,0,1-10.75,12.51,4.06,4.06,0,0,1-.51.42c-1.64,1-3.31,2.17-5.27.85-1.59-1.07-2-3.57-1.13-5.83a47.23,47.23,0,0,1,10.77-17A11.08,11.08,0,0,1,300,84.49C303.89,82.79,306.1,84.27,306.06,89.78Z" transform="translate(-36.18 -42.93)"/><path class="cls-2" d="M275.05,178.15a14.94,14.94,0,0,1-5.44-.8c-2.71-1.1-3.23-2.81-1.5-5.19a12,12,0,0,1,6.32-4.26c5.12-1.64,10.31-3.06,15.48-4.53a9.75,9.75,0,0,1,5,0,3.4,3.4,0,0,1,2.54,2.78c.3,1.22.5,2.55-.79,3.41C290.08,174,283.35,178.06,275.05,178.15Z" transform="translate(-36.18 -42.93)"/><path class="cls-2" d="M364.44,80.24c-1.67-.11-3.9.31-6.05-.42-3.33-1.13-3.88-3.6-1.29-6,4-3.61,8.86-4.83,14-5.21a29.83,29.83,0,0,1,13.28,1.51,4.65,4.65,0,0,1,2.84,2.29c.76,1.68-.06,3.2-2.2,4.08A53,53,0,0,1,364.44,80.24Z" transform="translate(-36.18 -42.93)"/><path class="cls-2" d="M400.29,69.43a27.3,27.3,0,0,1-6.81-.48c-1.81-.43-3.42-1.16-3.66-3.29a4.22,4.22,0,0,1,2.66-4.43A30.52,30.52,0,0,1,404,58.39c4.62-.33,9.28-.56,13.86.48,1.49.33,3.3.59,3.61,2.42s-.88,3.22-2.33,4.22c-2.82,1.94-6.17,2.31-9.4,3A55.46,55.46,0,0,1,400.29,69.43Z" transform="translate(-36.18 -42.93)"/><path class="cls-2" d="M296,54a8.68,8.68,0,0,1-2.22,5.86,66.8,66.8,0,0,1-12.61,11.67,14.18,14.18,0,0,1-4.36,2.1c-3.18.84-4.86-.62-4.51-3.9a9.59,9.59,0,0,1,1.84-4.45A59.16,59.16,0,0,1,286,52.91a10,10,0,0,1,6.22-2.56C295.05,50.34,296,51.2,296,54Z" transform="translate(-36.18 -42.93)"/><path class="cls-2" d="M254.52,108.85c1.59-8.07,3.86-15.86,9.63-22.15,1-1.12,2-2.46,3.91-1.62,2.08.91,4.06,1.89,4.4,4.47A6.55,6.55,0,0,1,272,93a83.83,83.83,0,0,1-6.47,13,18.67,18.67,0,0,1-4.19,4.8A5,5,0,0,1,257,112C255.36,111.62,254.29,110.77,254.52,108.85Z" transform="translate(-36.18 -42.93)"/><path class="cls-2" d="M219.4,229c.77-5.81,4.14-11.66,9.21-16.53,2-2,5.36-.76,6.44,2a9.39,9.39,0,0,1,.1,5.67,41.15,41.15,0,0,1-5.35,13c-.12.19-.25.37-.37.55-2,2.8-4.57,4.13-6.63,3.43S219.28,233.79,219.4,229Z" transform="translate(-36.18 -42.93)"/><path class="cls-2" d="M155.05,182.32c-.12,1.24-.15,2.5-.38,3.72-.52,2.72-1.81,3.42-4.43,2.54a6.06,6.06,0,0,1-3.27-2.83A46.94,46.94,0,0,1,140.12,167c-.47-3.71.09-5.26,2.12-6.1s4-.12,6,2.83C152.07,169.35,155.26,175.2,155.05,182.32Z" transform="translate(-36.18 -42.93)"/><path class="cls-2" d="M210.18,134.62c-3.3,0-5.22-2.18-4.49-5a45.41,45.41,0,0,1,10.1-18.18,7.16,7.16,0,0,1,5.07-2.39c3-.21,4.89,2.34,3.65,5-2.35,5.08-4.73,10.14-7.25,15.13C215.72,132.28,213.36,134.41,210.18,134.62Z" transform="translate(-36.18 -42.93)"/><path class="cls-2" d="M224.13,321.21a4.44,4.44,0,0,1-.37,1.69c-1.92,3.38-3.08,7.18-5.61,10.23a11.13,11.13,0,0,0-1.55,2.41,11.58,11.58,0,0,1-5,5.15c-1.32.78-2.74,1.34-4.13.24a4.49,4.49,0,0,1-2-4.39,5,5,0,0,1,.42-1.71c3.07-5.11,4.57-11,8-15.91a21.4,21.4,0,0,1,1.53-1.89,4,4,0,0,1,4.75-1.37A5.93,5.93,0,0,1,224.13,321.21Z" transform="translate(-36.18 -42.93)"/><path class="cls-2" d="M236.1,143.13a20.23,20.23,0,0,1,2.56-7.65,34,34,0,0,1,8.52-10.31,5.29,5.29,0,0,1,6.34-.26c1.64,1.14,2.13,3.13,1,5.58a51.67,51.67,0,0,1-9.79,15.1,6.14,6.14,0,0,1-4.64,2.21C237.09,147.75,236,146.69,236.1,143.13Z" transform="translate(-36.18 -42.93)"/><path class="cls-2" d="M223.13,91.75a12.5,12.5,0,0,1-.59,2.91,34.83,34.83,0,0,1-8.21,12.66c-2,1.82-4.29,2.18-6.06,1.08-2.05-1.26-2-3.27-1.6-5.29,1.19-5.53,3.12-10.72,7.16-14.89a9.33,9.33,0,0,1,1.16-1c1.71-1.31,3.47-2.65,5.8-1.84C222.28,85.88,223.23,88.44,223.13,91.75Z" transform="translate(-36.18 -42.93)"/><path class="cls-2" d="M324,124.21a26.3,26.3,0,0,1,6.88.76,6.45,6.45,0,0,1,1.27.38c1.52.8,3.26,1.7,3.16,3.6-.08,1.74-2,2-3.34,2.4-7.51,2.06-15.23,2.6-23,2.73a7.07,7.07,0,0,1-5.91-2.51c-1.38-1.72-1.09-2.84.92-3.75C309.92,125.11,316.28,124.44,324,124.21Z" transform="translate(-36.18 -42.93)"/><path class="cls-2" d="M281.07,144.21c-7.62-.87-6.71-1.44-3.9-6.77,2.22-4.24,4.49-8.48,8.34-11.58a8,8,0,0,1,6.08-2.09c2.9.32,4.56,2.64,3.54,5.35a30.66,30.66,0,0,1-10.32,14.07A4.77,4.77,0,0,1,281.07,144.21Z" transform="translate(-36.18 -42.93)"/><path class="cls-2" d="M452.77,125.92c-8.09-.1-17.92-10.29-17.45-18.09a18.15,18.15,0,0,1,.39-2.16c.24-1.27,1-1.51,2.11-1,8.4,3.57,14.62,9.24,17.32,18.21C455.87,125.27,455.25,126,452.77,125.92Z" transform="translate(-36.18 -42.93)"/><path class="cls-2" d="M263.36,159.88a16.08,16.08,0,0,1-6.81-1.61c-2.38-1.3-2.58-2.58-.72-4.48a7,7,0,0,1,1.35-1.14A36.21,36.21,0,0,1,276,147a6.5,6.5,0,0,1,5.21,2c.66.75,1.45,1.72.26,2.67C276,156,270.06,159.23,263.36,159.88Z" transform="translate(-36.18 -42.93)"/><path class="cls-2" d="M135.83,158.79a7.33,7.33,0,0,1-3-.71,32.2,32.2,0,0,1-14.06-12.68c-.94-1.56-1.41-3.22.06-4.89,1.34-1.52,2.58-1.95,4.6-.95a37.58,37.58,0,0,1,13.85,12.37,7.06,7.06,0,0,1,1.41,3.67A2.84,2.84,0,0,1,135.83,158.79Z" transform="translate(-36.18 -42.93)"/><path class="cls-2" d="M234.91,155.27c-.08,3.4,0,6.52-1.08,9.49-1.29,3.73-4.34,4.62-7.49,2.25a3,3,0,0,1-1.39-2.17c-.46-5.77-.35-11.49,1.62-17a4.59,4.59,0,0,1,1.23-2.06c2.88-2.53,5.7-1.63,6.5,2.12A39.47,39.47,0,0,1,234.91,155.27Z" transform="translate(-36.18 -42.93)"/><path class="cls-2" d="M259.12,179.25a12.11,12.11,0,0,1-3.66,8.72,32.56,32.56,0,0,1-8,6.2c-1.21.69-2.51,1.08-3.71.05a3.34,3.34,0,0,1-.92-3.62c.76-3.27.76-6.75,3.42-9.37a26.11,26.11,0,0,1,7.08-5.23C257.4,174.09,259.12,175.18,259.12,179.25Z" transform="translate(-36.18 -42.93)"/><path class="cls-2" d="M238.07,211.76a11.61,11.61,0,0,1,1.72-6.46,60.32,60.32,0,0,1,6.4-8.19,6.4,6.4,0,0,1,7.12-1.54,1.5,1.5,0,0,1,1.1,2c-1.5,6.36-4.86,11.67-9.24,16.4a3.85,3.85,0,0,1-.87.68c-1.58.92-3.4,1.63-5,.78C237.84,214.71,238.25,212.83,238.07,211.76Z" transform="translate(-36.18 -42.93)"/><path class="cls-2" d="M364.91,195.31l.24-.24c.12.34-.17.15-.27.21Z" transform="translate(-36.18 -42.93)"/></svg>